<svg xmlns="http://www.w3.org/2000/svg" width="720" height="720" viewBox="0 0 720 720" role="img" aria-labelledby="title desc">
  <title id="title">Justice Cat 收款码占位图</title>
  <desc id="desc">请将该文件替换为真实收款码图片，或配置 VITE_PAYMENT_QR_URL。</desc>
  <rect width="720" height="720" rx="48" fill="#fffaf2"/>
  <rect x="44" y="44" width="632" height="632" rx="36" fill="#fff" stroke="#ead8ca" stroke-width="6"/>
  <g fill="#1f2328">
    <rect x="94" y="94" width="156" height="156" rx="18"/>
    <rect x="470" y="94" width="156" height="156" rx="18"/>
    <rect x="94" y="470" width="156" height="156" rx="18"/>
    <rect x="122" y="122" width="100" height="100" rx="12" fill="#fff"/>
    <rect x="498" y="122" width="100" height="100" rx="12" fill="#fff"/>
    <rect x="122" y="498" width="100" height="100" rx="12" fill="#fff"/>
    <rect x="148" y="148" width="48" height="48" rx="8"/>
    <rect x="524" y="148" width="48" height="48" rx="8"/>
    <rect x="148" y="524" width="48" height="48" rx="8"/>
    <rect x="298" y="100" width="46" height="46" rx="8"/>
    <rect x="370" y="100" width="46" height="46" rx="8"/>
    <rect x="296" y="178" width="120" height="42" rx="8"/>
    <rect x="292" y="292" width="52" height="52" rx="8"/>
    <rect x="368" y="292" width="52" height="52" rx="8"/>
    <rect x="444" y="292" width="52" height="52" rx="8"/>
    <rect x="292" y="368" width="128" height="52" rx="8"/>
    <rect x="470" y="368" width="52" height="52" rx="8"/>
    <rect x="548" y="292" width="52" height="128" rx="8"/>
    <rect x="292" y="470" width="52" height="156" rx="8"/>
    <rect x="368" y="470" width="156" height="52" rx="8"/>
    <rect x="548" y="470" width="52" height="52" rx="8"/>
    <rect x="368" y="574" width="52" height="52" rx="8"/>
    <rect x="470" y="574" width="130" height="52" rx="8"/>
  </g>
  <circle cx="360" cy="360" r="86" fill="#f6dfcf" stroke="#c96f3f" stroke-width="5"/>
  <text x="360" y="344" text-anchor="middle" font-family="Arial, sans-serif" font-size="34" font-weight="700" fill="#a84f25">收款码</text>
  <text x="360" y="390" text-anchor="middle" font-family="Arial, sans-serif" font-size="24" fill="#6e746f">请替换为真实图片</text>
</svg>
